<?xml version="1.0" encoding="UTF-8"?>
<svg version="1.1" xmlns="http://www.w3.org/2000/svg" width="128" height="128">
<path d="M0 0 C42.24 0 84.48 0 128 0 C128 42.24 128 84.48 128 128 C85.76 128 43.52 128 0 128 C0 85.76 0 43.52 0 0 Z " fill="#020202" transform="translate(0,0)"/>
<path d="M0 0 C-0.77240414 11.84353008 -7.52751722 19.26783125 -16 27 C-14.906875 26.34 -13.81375 25.68 -12.6875 25 C-10.06292462 23.41535071 -9.1743622 23 -6 23 C-8.19532807 30.80561093 -15.16685524 36.34302109 -21.140625 41.390625 C-22.81391355 42.83893358 -24.34780896 44.33844114 -25.875 45.9375 C-28 48 -28 48 -30 48 C-29.94779297 49.08667969 -29.94779297 49.08667969 -29.89453125 50.1953125 C-29.73368051 55.93998168 -29.76533816 60.01322966 -33 65 C-37.62359241 65 -37.90251388 64.52893634 -41 61.4375 C-41.66 60.77621094 -42.32 60.11492187 -43 59.43359375 C-44.84184496 57.82632447 -44.84184496 57.82632447 -46.859375 57.96875 C-50.05271346 59.50714663 -52.59564001 61.75422283 -55.25 64.0625 C-55.80429687 64.53494141 -56.35859375 65.00738281 -56.9296875 65.49414062 C-58.291749 66.65658967 -59.64659956 67.82747855 -61 69 C-59.17215398 69.96875839 -57.33739059 70.92446873 -55.5 71.875 C-54.4790625 72.40867187 -53.458125 72.94234375 -52.40625 73.4921875 C-44.67874891 76.91284738 -37.77953581 77.3146252 -29.4375 77.25 C-28.43525391 77.25773437 -27.43300781 77.26546875 -26.40039062 77.2734375 C-20.87377809 77.25888421 -16.21916904 76.84464319 -11 75 C-11 78 -11 78 -12.8359375 79.8671875 C-26.6990468 90.82970778 -40.31952688 95.34282074 -58 94 C-65.16475558 92.53520553 -71.46711943 90.29780017 -77.31640625 85.85546875 C-78.95708004 84.84593695 -78.95708004 84.84593695 -80.82421875 85.09375 C-83.94155619 86.39217421 -86.53841366 88.3351048 -89.25 90.3125 C-102.8278061 99.93518089 -102.8278061 99.93518089 -109 99 C-110.59554549 97.40445451 -110.36313379 95.84907598 -110.5 93.625 C-110.46131786 83.81263129 -105.91800745 73.29089263 -101.22265625 64.77734375 C-99.76222459 61.45987758 -99.94315626 59.86804303 -100.75 56.375 C-100.95109375 55.45460937 -101.1521875 54.53421875 -101.359375 53.5859375 C-101.73447664 52.07180771 -102.12646525 50.5613513 -102.55859375 49.0625 C-104.89905803 38.12652533 -102.71906199 25.85673215 -97.42578125 16.09765625 C-96.95527344 15.40542969 -96.48476562 14.71320312 -96 14 C-95.67 14 -95.34 14 -95 14 C-94.87882812 14.76183594 -94.75765625 15.52367187 -94.6328125 16.30859375 C-94.28192835 18.47057993 -93.91918633 20.63066304 -93.546875 22.7890625 C-93.23632431 24.61243872 -92.94262448 26.43937573 -92.703125 28.2734375 C-90.61939654 41.22232151 -82.0676164 52.06245187 -73 61 C-66.9113299 58.28947362 -61.59271944 52.5387758 -58 47 C-58.35708804 43.34554578 -60.13621852 41.39685252 -62.5625 38.75 C-63.20316406 38.04359375 -63.84382813 37.3371875 -64.50390625 36.609375 C-64.99761719 36.07828125 -65.49132812 35.5471875 -66 35 C-64.25 31.125 -64.25 31.125 -62 30 C-59.7927077 29.92907158 -57.58332548 29.91584975 -55.375 29.9375 C-54.18648437 29.94652344 -52.99796875 29.95554687 -51.7734375 29.96484375 C-50.85820313 29.97644531 -49.94296875 29.98804687 -49 30 C-48.74710205 29.42258057 -48.4942041 28.84516113 -48.23364258 28.25024414 C-46.85240098 25.73076981 -45.28855359 24.02975377 -43.26171875 21.99609375 C-42.52373047 21.25552734 -41.78574219 20.51496094 -41.02539062 19.75195312 C-40.25388672 18.98818359 -39.48238281 18.22441406 -38.6875 17.4375 C-37.92759766 16.66986328 -37.16769531 15.90222656 -36.38476562 15.11132812 C-35.27198242 14.00241211 -35.27198242 14.00241211 -34.13671875 12.87109375 C-33.46342529 12.20005615 -32.79013184 11.52901855 -32.09643555 10.83764648 C-26.57752092 6 -26.57752092 6 -23 6 C-24.35997554 12.04433574 -27.85651794 15.63494136 -32 20 C-28.45569019 17.2870715 -25.45660324 14.40463499 -22.4375 11.125 C-16.44827909 5.0640519 -8.90593579 -0.61644 0 0 Z " fill="#F7F7F7" transform="translate(119,12)"/>
<path d="M0 0 C0.66 0 1.32 0 2 0 C3.47265625 1.86328125 3.47265625 1.86328125 5.0625 4.3125 C5.58972656 5.11300781 6.11695313 5.91351563 6.66015625 6.73828125 C8 9 8 9 9 12 C7.23669281 13.5088401 5.46409603 15.0068298 3.6875 16.5 C2.70136719 17.3353125 1.71523438 18.170625 0.69921875 19.03125 C-2 21 -2 21 -5 21 C-4.5003731 13.50559651 -2.56235522 7.04349737 0 0 Z " fill="#0E0E0E" transform="translate(22,79)"/>
<path d="M0 0 C-0.27408477 3.68433185 -0.57501874 5.53645562 -3.109375 8.30078125 C-3.98078125 8.96464844 -4.8521875 9.62851563 -5.75 10.3125 C-6.61109375 10.98925781 -7.4721875 11.66601562 -8.359375 12.36328125 C-11.00464212 14.00287729 -12.93722804 14.6199078 -16 15 C-16.66 13.68 -17.32 12.36 -18 11 C-16.23519919 9.1812664 -14.46369235 7.37005009 -12.6875 5.5625 C-12.18798828 5.04623047 -11.68847656 4.52996094 -11.17382812 3.99804688 C-7.41552119 0.18996105 -5.2813696 -1.63904574 0 0 Z " fill="#0B0B0B" transform="translate(68,64)"/>
<path d="M0 0 C0.33 0.66 0.66 1.32 1 2 C1.66 2.33 2.32 2.66 3 3 C-0.63 6.63 -4.26 10.26 -8 14 C-8 10.44848895 -7.45534787 10.06567271 -5.125 7.5625 C-2.90459672 5.16510806 -1.35077619 2.98351051 0 0 Z " fill="#565656" transform="translate(95,20)"/>
<path d="M0 0 C0.66 0.33 1.32 0.66 2 1 C-0.35684596 4.34920216 -3.06799526 7.14723863 -6 10 C-6 7 -6 7 -5 4 C-3.37667033 2.61423077 -1.71275535 1.27358732 0 0 Z " fill="#DBDBDB" transform="translate(65,70)"/>
</svg>
